# xmcd
#
# Track frame offsets:
#	150
#	13462
#	22657
#	35590
#	47362
#	60612
#	72565
#	84412
#	96842
#	107435
#	119367
#	138602
#	151550
#	165005
#	190055
#
# Disc length: 2568 seconds
# Revision: 0
# Processed by: cddbd v1.5.2PL0 Copyright (c) Steve Scherf et al.
# Submitted via: dBpowerAMP V12.0
#
DISCID=b20a060f
DTITLE=Various Artist - Playlist: The Very Best Of Tammy Wynette
DYEAR=2008
DGENRE=Country
TTITLE0=Tammy Wynette - Apartment #9
TTITLE1=Tammy Wynette - Your Good Girl's Gonna Go Bad
TTITLE2=Tammy Wynette and David Houston - My Elusive Dreams
TTITLE3=Tammy Wynette - I Don't Wanna Play House
TTITLE4=Tammy Wynette - D-I-V-O-R-C-E
TTITLE5=Tammy Wynette - Stand By Your Man
TTITLE6=Tammy Wynette - He Loves Me All The Way
TTITLE7=Tammy Wynette - We Sure Can Love Each Other
TTITLE8=Tammy Wynette - Take Me
TTITLE9=Tammy Wynette - 'Til I Get It Right
TTITLE10=Tammy Wynette - Bedtime Story
TTITLE11=Tammy Wynette - Kids Say The Darndest Things
TTITLE12=Tammy Wynette - Woman To Woman
TTITLE13=Tammy Wynette - 'Til I Can Make It On My Own
TTITLE14=DATA
EXTD=
EXTT0=
EXTT1=
EXTT2=
EXTT3=
EXTT4=
EXTT5=
EXTT6=
EXTT7=
EXTT8=
EXTT9=
EXTT10=
EXTT11=
EXTT12=
EXTT13=
EXTT14=
PLAYORDER=
